<?xml version="1.0" encoding="utf-8"?>
<!-- Generator: Adobe Illustrator 25.0.1, SVG Export Plug-In . SVG Version: 6.00 Build 0)  -->
<svg version="1.1" id="Layer_1" xmlns="http://www.w3.org/2000/svg" xmlns:xlink="http://www.w3.org/1999/xlink" x="0px" y="0px"
	 viewBox="0 0 228.28 169.87" style="enable-background:new 0 0 228.28 169.87;" xml:space="preserve">
<style type="text/css">
	.st0{fill:#0082C9;}
	.st1{fill:#8BC53F;}
</style>
<g>
	<path class="st0" d="M127.83,139.44l-7.78-4.29c-2.92-1.7-3.73-3.24-3.73-5.18c0-2.59,2.19-4.54,5.43-4.54
		c2.82,0,4.47,1.21,5.11,3.63c0.21,0.8,0.92,1.37,1.75,1.37h3.74c1.09,0,1.95-0.97,1.8-2.05c-0.88-6.42-5.55-9.43-12.31-9.43
		c-8.67,0-14.18,4.7-14.18,11.34c0,6.24,3.16,9.96,7.13,12.15l7.29,3.81c3.73,2.11,4.78,3.65,4.78,6.24c0,3-2.43,5.02-5.67,5.02
		c-2.56,0-4.67-1.14-5.62-3.51c-0.27-0.68-0.94-1.12-1.66-1.12h-4.14c-1.14,0-2.02,1.05-1.77,2.16c1.14,5.14,5.33,9.03,12.95,9.03
		c9.24,0,14.66-4.94,14.66-11.99C135.61,146,132.94,142.43,127.83,139.44"/>
	<path class="st0" d="M168.2,150.05c0,8.91-5.91,14.01-14.42,14.01c-8.51,0-14.5-4.78-14.5-14.01v-17.09
		c0-9.15,6.24-14.01,14.5-14.01c8.02,0,14.42,4.62,14.42,14.02V150.05z M159.45,133.12c0-4.21-2.27-6.72-5.67-6.72
		c-3.24,0-5.83,2.51-5.83,6.81v16.53c0,4.13,2.43,6.81,5.91,6.81c3.4,0,5.59-3,5.59-6.81V133.12z"/>
	<path class="st1" d="M31.07,150.43c-0.57,0-1.04,0.42-1.12,0.98c-0.46,3.13-2.51,5.44-5.49,5.44c-3.48,0-5.91-2.68-5.91-6.81v-4.63
		c0-0.63,0.51-1.14,1.14-1.14h17.98c0.63,0,1.14-0.51,1.14-1.14v-0.17v-9.69c0-9.4-6.4-14.02-14.42-14.02
		c-8.27,0-14.5,4.86-14.5,14.02v17.09c0,9.24,6,14.02,14.5,14.02c8.09,0,13.83-4.62,14.37-12.74c0.04-0.66-0.48-1.21-1.14-1.21
		H31.07z M18.55,133.52c0-4.29,2.59-6.81,5.84-6.81c3.4,0,5.67,2.51,5.67,6.73v3.08c0,0.63-0.51,1.14-1.14,1.14h-9.23
		c-0.63,0-1.14-0.51-1.14-1.14V133.52z"/>
	<path class="st1" d="M97.24,119.57c-1.1,0-2,0.89-2,2v28.48c0,3.81-2.19,6.81-5.59,6.81c-3.48,0-5.91-2.67-5.91-6.81v-28.48
		c0-1.1-0.89-2-2-2h-4.68c-1.1,0-2,0.89-2,2v28.81c0,9.23,5.99,14.01,14.5,14.01c8.51,0,14.42-5.1,14.42-14.01v-28.81
		c0-1.1-0.89-2-2-2H97.24z"/>
	<path class="st1" d="M62.65,104.66v13.09c0,1.18-1.08,2.04-2.24,1.83c-1.1-0.2-2.25-0.3-3.43-0.3c-8.26,0-14.5,4.86-14.5,14.01
		l0,17.09c0,9.24,6,14.02,14.5,14.02c8.5,0,14.42-5.1,14.42-14.02v-45.71c0-1.03-0.83-1.86-1.86-1.86h-5.02
		C63.48,102.79,62.65,103.63,62.65,104.66 M62.65,150.05c0,3.81-2.19,6.81-5.59,6.81c-3.48,0-5.91-2.68-5.91-6.81v-16.52
		c0-4.29,2.59-6.81,5.84-6.81c3.4,0,5.67,2.51,5.67,6.72V150.05z"/>
	<path class="st0" d="M190.51,125.85h-3.64c-1.16,0-2.11,0.94-2.11,2.11v34c0,1.16-0.94,2.11-2.11,2.11h-4.46
		c-1.16,0-2.11-0.94-2.11-2.11v-33.92c0-1.16-0.94-2.11-2.11-2.11s-2.11-0.94-2.11-2.11v-2.51c0-1.16,0.94-2.11,2.11-2.11
		s2.11-0.94,2.11-2.11v-1c0-7.7,4.39-13.31,12.41-13.31h1.86c1.16,0,2.11,0.94,2.11,2.11v4.46c0,1.15-0.92,2.08-2.07,2.11
		c-0.09,0-0.18,0-0.28,0.01c-3.89,0.05-5.37,1.33-5.37,5.37v0.27c0,1.16,0.94,2.11,2.11,2.11h3.64c1.16,0,2.11,0.94,2.11,2.11v2.43
		C192.61,124.91,191.67,125.85,190.51,125.85"/>
	<path class="st0" d="M218.4,124.22v-3.35c0-0.89-0.72-1.61-1.61-1.61h-5.69c-0.89,0-1.61-0.72-1.61-1.61v-7.87
		c0-0.89-0.72-1.61-1.61-1.61c-0.51,0-0.98,0.24-1.29,0.64l-5.44,5.89c-0.21,0.28-0.33,0.62-0.33,0.97v2.58
		c0,0.89-0.72,0.97-1.61,0.97h-1.31c-0.89,0-1.61,0.72-1.61,1.61v3.4c0,0.89,0.72,1.61,1.61,1.61h1.31c0.89,0,1.61,0.72,1.61,1.61
		v23.37c0,7.7,4.4,13.31,12.42,13.31h2.36c0.89,0,1.61-0.72,1.61-1.61v-5.42c0-0.87-0.69-1.58-1.56-1.61
		c-0.24-0.01-0.49-0.02-0.8-0.02c-3.89-0.05-5.36-1.33-5.36-5.36l-0.01-13.19v-9.45c0-0.89,0.72-1.61,1.61-1.61h5.69
		C217.68,125.83,218.4,125.11,218.4,124.22"/>
	<path class="st1" d="M113.04,51.96c0,1.69-1.37,3.06-3.06,3.06H94.99c-14.69,0-29.38,0.04-44.07,0
		c-7.07-0.02-11.54-3.98-11.6-10.11c-0.06-6.18,4.34-10.2,11.41-10.24c11.02-0.06,22.04,0,33.05,0c1.13,0,2.5,0.05,3.24-0.14
		c0.2-0.05,0.46-0.19,0.64-0.31c1.67-1.16,1.83-3.67,0.27-4.97c-0.3-0.25-0.6-0.41-0.9-0.41c-12.99-0.17-25.4-0.12-38.77-0.12
		c-8.52,0-15.24,8.45-14.86,16.53c0.4,8.76,7.15,15.53,16.35,15.75c11.21,0.27,22.44-0.06,33.66,0c8.69,0.05,17.39-0.11,26.08,0
		c2.92,0.04,3.6,0.85,3.6,4.06v9.74c0,5.23-3.69,9.05-8.8,9.07H44.13C27.11,83.07,11.76,66,10.54,48.94
		C9.11,28.99,20.96,11.57,39.38,6.97c3.92-0.98,8.09-1.37,12.15-1.41c16.53-0.15,33.06-0.04,49.58,0
		c8.85,0.02,11.91,3.14,11.92,12.03c0.02,10.74,0,21.47,0,32.21V51.96z"/>
	<path class="st0" d="M218.28,48.94c-0.15,2.04-0.5,4.07-1.03,6.08c-3.88,14.82-17.58,28.14-32.56,28.85h-60.17
		c-5.1-0.02-8.8-3.84-8.8-9.07v-9.74c0-3.21,0.69-4.03,3.6-4.06c8.69-0.11,17.39,0.04,26.08,0c11.22-0.06,22.45,0.26,33.66,0
		c5.27-0.13,9.72-2.4,12.64-5.96c-21.87,0-48.52-0.02-57.89-0.02h-14.99c-1.69,0-3.06-1.37-3.06-3.05V49.8
		c0-10.73-0.02-21.47,0-32.21c0.02-8.9,3.08-12.01,11.92-12.03c16.54-0.03,33.06-0.14,49.59,0c4.06,0.04,8.22,0.43,12.15,1.41
		c11.75,2.94,20.83,11.09,25.49,21.79h-33.38c-0.32-0.03-0.65-0.04-0.97-0.04c-13.38,0-25.79-0.06-38.78,0.12
		c-0.31,0-0.6,0.16-0.9,0.42c-1.56,1.3-1.41,3.81,0.26,4.97c0.17,0.11,0.44,0.25,0.64,0.31c0.74,0.19,2.11,0.14,3.24,0.14
		c6.56,0,28.14-0.03,46.86-0.03c10.16-0.01,19.47,0,25.08,0.01C218.17,39.15,218.64,43.97,218.28,48.94"/>
</g>
</svg>
